#Comment line ignore any data following # character 
#Hierarchical Translation and Rotation (.htr) file 
[Header]	
#Header keywords are followed by a single value 
FileType HTR		#Single word string
DataType HTRS		#Translation followed by rotation and scale data
FileVersion 1		#integer
NumSegments 84		#integer
NumFrames 2		#integer
DataFrameRate 30		#integer, data frame rate in this file
EulerRotationOrder ZYX
CalibrationUnits mm
RotationUnits Degrees
GlobalAxisofGravity Y
BoneLengthAxis Y
ScaleFactor 1.00
[SegmentNames&Hierarchy]
#CHILD	PARENT
MASTER GLOBAL
root MASTER
chest root
L_mid_tent01 root
R_mid_tent01 root
spine01 root
Bip01_Neck chest
L_humerus chest
R_humerus chest
weapon_bone chest
Bip01_Head Bip01_Neck
eye_left_bone Bip01_Head
eye_right_bone Bip01_Head
L_forearm L_humerus
L_front_hand L_forearm
L_weapon_bone L_forearm
L_front_hand01_01 L_front_hand
L_front_hand02_01 L_front_hand
L_front_hand03_01 L_front_hand
L_front_hand01_02 L_front_hand01_01
L_front_hand02_02 L_front_hand02_01
L_front_hand03_02 L_front_hand03_01
R_forearm R_humerus
R_front_hand R_forearm
R_weapon_bone R_forearm
R_front_hand01_01 R_front_hand
R_front_hand02_01 R_front_hand
R_front_hand03_01 R_front_hand
R_front_hand01_02 R_front_hand01_01
R_front_hand02_02 R_front_hand02_01
R_front_hand03_02 R_front_hand03_01
null_rope01_connect L_mid_tent01
Rope1_Seg01 null_rope01_connect
Rope1_Seg02 Rope1_Seg01
Rope1_Seg03 Rope1_Seg02
Rope1_Seg04 Rope1_Seg03
Rope1_Seg05 Rope1_Seg04
Rope1_Seg06 Rope1_Seg05
Rope1_Seg07 Rope1_Seg06
Rope1_Seg09 Rope1_Seg07
L_mid_hand01 Rope1_Seg09
L_mid_hand02 Rope1_Seg09
L_mid_hand03 Rope1_Seg09
null_rope02_connect R_mid_tent01
Rope2_Seg01 null_rope02_connect
Rope2_Seg02 Rope2_Seg01
Rope2_Seg03 Rope2_Seg02
Rope2_Seg04 Rope2_Seg03
Rope2_Seg05 Rope2_Seg04
Rope2_Seg06 Rope2_Seg05
Rope2_Seg07 Rope2_Seg06
Rope2_Seg09 Rope2_Seg07
R_mid_hand01 Rope2_Seg09
R_mid_hand02 Rope2_Seg09
R_mid_hand03 Rope2_Seg09
spine02 spine01
spine03 spine02
pelvis spine03
null_rope03_connect pelvis
null_rope04_connect pelvis
Rope3_Seg01 null_rope03_connect
Rope3_Seg02 Rope3_Seg01
Rope3_Seg03 Rope3_Seg02
Rope3_Seg04 Rope3_Seg03
Rope3_Seg05 Rope3_Seg04
Rope3_Seg06 Rope3_Seg05
Rope3_Seg07 Rope3_Seg06
Rope3_Seg08 Rope3_Seg07
Rope3_Seg09 Rope3_Seg08
R_rear_hand01 Rope3_Seg09
R_rear_hand02 Rope3_Seg09
R_rear_hand03 Rope3_Seg09
Rope4_Seg01 null_rope04_connect
Rope4_Seg02 Rope4_Seg01
Rope4_Seg03 Rope4_Seg02
Rope4_Seg04 Rope4_Seg03
Rope4_Seg05 Rope4_Seg04
Rope4_Seg06 Rope4_Seg05
Rope4_Seg07 Rope4_Seg06
Rope4_Seg08 Rope4_Seg07
Rope4_Seg09 Rope4_Seg08
L_rear_hand01 Rope4_Seg09
L_rear_hand02 Rope4_Seg09
L_rear_hand03 Rope4_Seg09
[BasePosition]
#SegmentName Tx, Ty, Tz, Rx, Ry, Rz, BoneLength
MASTER 0.000000 0.000000 0.000000 -90.000000 0.000000 0.000000 10.000000 
root 0.000000 0.000000 0.000000 0.000000 0.000000 0.000000 10.000000 
chest 0.000000 0.000000 0.000000 0.000000 0.000000 0.000000 10.000000 
L_mid_tent01 0.000000 0.000000 0.000000 0.000000 0.000000 0.000000 10.000000 
R_mid_tent01 0.000000 0.000000 0.000000 0.000000 0.000000 0.000000 10.000000 
spine01 0.000000 0.000000 0.000000 0.000000 0.000000 0.000000 10.000000 
Bip01_Neck 0.000000 0.000000 0.000000 0.000000 0.000000 0.000000 10.000000 
L_humerus 0.000000 0.000000 0.000000 0.000000 0.000000 0.000000 10.000000 
R_humerus 0.000000 0.000000 0.000000 0.000000 0.000000 0.000000 10.000000 
weapon_bone 0.000000 0.000000 0.000000 0.000000 0.000000 0.000000 10.000000 
Bip01_Head 0.000000 0.000000 0.000000 0.000000 0.000000 0.000000 10.000000 
eye_left_bone 0.000000 0.000000 0.000000 0.000000 0.000000 0.000000 10.000000 
eye_right_bone 0.000000 0.000000 0.000000 0.000000 0.000000 0.000000 10.000000 
L_forearm 0.000000 0.000000 0.000000 0.000000 0.000000 0.000000 10.000000 
L_front_hand 0.000000 0.000000 0.000000 0.000000 0.000000 0.000000 10.000000 
L_weapon_bone 0.000000 0.000000 0.000000 0.000000 0.000000 0.000000 10.000000 
L_front_hand01_01 0.000000 0.000000 0.000000 0.000000 0.000000 0.000000 10.000000 
L_front_hand02_01 0.000000 0.000000 0.000000 0.000000 0.000000 0.000000 10.000000 
L_front_hand03_01 0.000000 0.000000 0.000000 0.000000 0.000000 0.000000 10.000000 
L_front_hand01_02 0.000000 0.000000 0.000000 0.000000 0.000000 0.000000 10.000000 
L_front_hand02_02 0.000000 0.000000 0.000000 0.000000 0.000000 0.000000 10.000000 
L_front_hand03_02 0.000000 0.000000 0.000000 0.000000 0.000000 0.000000 10.000000 
R_forearm 0.000000 0.000000 0.000000 0.000000 0.000000 0.000000 10.000000 
R_front_hand 0.000000 0.000000 0.000000 0.000000 0.000000 0.000000 10.000000 
R_weapon_bone 0.000000 0.000000 0.000000 0.000000 0.000000 0.000000 10.000000 
R_front_hand01_01 0.000000 0.000000 0.000000 0.000000 0.000000 0.000000 10.000000 
R_front_hand02_01 0.000000 0.000000 0.000000 0.000000 0.000000 0.000000 10.000000 
R_front_hand03_01 0.000000 0.000000 0.000000 0.000000 0.000000 0.000000 10.000000 
R_front_hand01_02 0.000000 0.000000 0.000000 0.000000 0.000000 0.000000 10.000000 
R_front_hand02_02 0.000000 0.000000 0.000000 0.000000 0.000000 0.000000 10.000000 
R_front_hand03_02 0.000000 0.000000 0.000000 0.000000 0.000000 0.000000 10.000000 
null_rope01_connect 0.000000 0.000000 0.000000 0.000000 0.000000 0.000000 10.000000 
Rope1_Seg01 0.000000 0.000000 0.000000 0.000000 0.000000 0.000000 10.000000 
Rope1_Seg02 0.000000 0.000000 0.000000 0.000000 0.000000 0.000000 10.000000 
Rope1_Seg03 0.000000 0.000000 0.000000 0.000000 0.000000 0.000000 10.000000 
Rope1_Seg04 0.000000 0.000000 0.000000 0.000000 0.000000 0.000000 10.000000 
Rope1_Seg05 0.000000 0.000000 0.000000 0.000000 0.000000 0.000000 10.000000 
Rope1_Seg06 0.000000 0.000000 0.000000 0.000000 0.000000 0.000000 10.000000 
Rope1_Seg07 0.000000 0.000000 0.000000 0.000000 0.000000 0.000000 10.000000 
Rope1_Seg09 0.000000 0.000000 0.000000 0.000000 0.000000 0.000000 10.000000 
L_mid_hand01 0.000000 0.000000 0.000000 0.000000 0.000000 0.000000 10.000000 
L_mid_hand02 0.000000 0.000000 0.000000 0.000000 0.000000 0.000000 10.000000 
L_mid_hand03 0.000000 0.000000 0.000000 0.000000 0.000000 0.000000 10.000000 
null_rope02_connect 0.000000 0.000000 0.000000 0.000000 0.000000 0.000000 10.000000 
Rope2_Seg01 0.000000 0.000000 0.000000 0.000000 0.000000 0.000000 10.000000 
Rope2_Seg02 0.000000 0.000000 0.000000 0.000000 0.000000 0.000000 10.000000 
Rope2_Seg03 0.000000 0.000000 0.000000 0.000000 0.000000 0.000000 10.000000 
Rope2_Seg04 0.000000 0.000000 0.000000 0.000000 0.000000 0.000000 10.000000 
Rope2_Seg05 0.000000 0.000000 0.000000 0.000000 0.000000 0.000000 10.000000 
Rope2_Seg06 0.000000 0.000000 0.000000 0.000000 0.000000 0.000000 10.000000 
Rope2_Seg07 0.000000 0.000000 0.000000 0.000000 0.000000 0.000000 10.000000 
Rope2_Seg09 0.000000 0.000000 0.000000 0.000000 0.000000 0.000000 10.000000 
R_mid_hand01 0.000000 0.000000 0.000000 0.000000 0.000000 0.000000 10.000000 
R_mid_hand02 0.000000 0.000000 0.000000 0.000000 0.000000 0.000000 10.000000 
R_mid_hand03 0.000000 0.000000 0.000000 0.000000 0.000000 0.000000 10.000000 
spine02 0.000000 0.000000 0.000000 0.000000 0.000000 0.000000 10.000000 
spine03 0.000000 0.000000 0.000000 0.000000 0.000000 0.000000 10.000000 
pelvis 0.000000 0.000000 0.000000 0.000000 0.000000 0.000000 10.000000 
null_rope03_connect 0.000000 0.000000 0.000000 0.000000 0.000000 0.000000 10.000000 
null_rope04_connect 0.000000 0.000000 0.000000 0.000000 0.000000 0.000000 10.000000 
Rope3_Seg01 0.000000 0.000000 0.000000 0.000000 0.000000 0.000000 10.000000 
Rope3_Seg02 0.000000 0.000000 0.000000 0.000000 0.000000 0.000000 10.000000 
Rope3_Seg03 0.000000 0.000000 0.000000 0.000000 0.000000 0.000000 10.000000 
Rope3_Seg04 0.000000 0.000000 0.000000 0.000000 0.000000 0.000000 10.000000 
Rope3_Seg05 0.000000 0.000000 0.000000 0.000000 0.000000 0.000000 10.000000 
Rope3_Seg06 0.000000 0.000000 0.000000 0.000000 0.000000 0.000000 10.000000 
Rope3_Seg07 0.000000 0.000000 0.000000 0.000000 0.000000 0.000000 10.000000 
Rope3_Seg08 0.000000 0.000000 0.000000 0.000000 0.000000 0.000000 10.000000 
Rope3_Seg09 0.000000 0.000000 0.000000 0.000000 0.000000 0.000000 10.000000 
R_rear_hand01 0.000000 0.000000 0.000000 0.000000 0.000000 0.000000 10.000000 
R_rear_hand02 0.000000 0.000000 0.000000 0.000000 0.000000 0.000000 10.000000 
R_rear_hand03 0.000000 0.000000 0.000000 0.000000 0.000000 0.000000 10.000000 
Rope4_Seg01 0.000000 0.000000 0.000000 0.000000 0.000000 0.000000 10.000000 
Rope4_Seg02 0.000000 0.000000 0.000000 0.000000 0.000000 0.000000 10.000000 
Rope4_Seg03 0.000000 0.000000 0.000000 0.000000 0.000000 0.000000 10.000000 
Rope4_Seg04 0.000000 0.000000 0.000000 0.000000 0.000000 0.000000 10.000000 
Rope4_Seg05 0.000000 0.000000 0.000000 0.000000 0.000000 0.000000 10.000000 
Rope4_Seg06 0.000000 0.000000 0.000000 0.000000 0.000000 0.000000 10.000000 
Rope4_Seg07 0.000000 0.000000 0.000000 0.000000 0.000000 0.000000 10.000000 
Rope4_Seg08 0.000000 0.000000 0.000000 0.000000 0.000000 0.000000 10.000000 
Rope4_Seg09 0.000000 0.000000 0.000000 0.000000 0.000000 0.000000 10.000000 
L_rear_hand01 0.000000 0.000000 0.000000 0.000000 0.000000 0.000000 10.000000 
L_rear_hand02 0.000000 0.000000 0.000000 0.000000 0.000000 0.000000 10.000000 
L_rear_hand03 0.000000 0.000000 0.000000 0.000000 0.000000 0.000000 10.000000 
#Beginning of Data. Separated by tabs
#Fr	Tx	Ty	Tz	Rx	Ry	Rz	SF
[MASTER]
8 1201.118774 1984.026489 1306.598877 0.001660 0.001660 0.001660 2662.000732
9 1382.224365 2247.601807 1428.005615 0.001660 0.001660 0.001660 3000.242920
[root]
8 -24.392015 -16.709602 1468.358643 -108.164032 -13.568803 -98.895340 1468.656372
9 -26.258905 -20.721340 1473.100220 -111.214218 -14.082935 -100.664009 1473.479858
[chest]
8 -84.512650 -34.090519 0.000000 -9.628138 10.222690 154.341629 91.129311
9 -84.512650 -34.090519 0.000000 -10.966864 11.719055 152.497162 91.129311
[L_mid_tent01]
8 27.298780 22.179205 -249.918839 2.962221 -0.154238 74.553909 252.381775
9 27.298737 22.179197 -249.918854 4.818441 -3.631591 82.778976 252.381790
[R_mid_tent01]
8 23.228794 24.509907 226.238495 165.430801 7.005645 68.701782 228.744751
9 23.228794 24.509907 226.238495 163.560928 9.635517 73.185310 228.744751
[spine01]
8 -0.361383 -0.195265 0.000000 0.002059 0.001128 32.565418 0.410763
9 -0.361383 -0.195265 0.000000 0.002062 0.001122 32.879829 0.410763
[Bip01_Neck]
8 165.484543 71.581718 0.000119 176.643677 -1.657967 43.431915 180.302734
9 165.484543 71.581718 0.000119 176.643677 -1.657967 43.431911 180.302734
[L_humerus]
8 -13.983130 -135.272980 -120.471481 -6.831879 64.628654 83.044426 181.680161
9 -13.983130 -135.272980 -120.471481 -6.926821 64.307983 82.935844 181.680161
[R_humerus]
8 -13.983309 -135.273102 125.287651 25.919952 -65.455032 69.793022 184.909012
9 -13.983309 -135.273102 125.287651 25.807369 -65.121605 69.911644 184.909012
[weapon_bone]
8 235.964890 -300.705902 0.000000 0.000000 -89.951546 -128.212341 382.234833
9 235.964890 -300.705902 0.000000 0.000000 -89.951546 -128.212341 382.234833
[Bip01_Head]
8 213.480530 185.614166 13.083766 4.981488 9.210817 -43.786930 283.192047
9 213.528946 185.479218 14.826053 4.978729 8.260610 -43.815334 283.226013
[eye_left_bone]
8 -24.626970 125.451866 -64.772606 0.000000 -90.000000 -99.840431 143.318359
9 -24.626970 125.451866 -64.772606 0.000000 -90.000000 -99.840431 143.318359
[eye_right_bone]
8 -24.626970 125.451866 64.327362 0.000000 -89.980217 80.156380 143.117676
9 -24.626970 125.451866 64.327362 0.000000 -89.965736 80.156380 143.117676
[L_forearm]
8 322.776093 0.000000 -0.000119 0.000425 -0.002308 -110.861717 322.776093
9 322.776093 0.000000 -0.000119 0.000427 -0.002308 -110.957764 322.776093
[L_front_hand]
8 241.149185 -0.042021 -3.300071 -178.667953 -1.835447 -27.422350 241.171753
9 241.149185 -0.042021 -3.300071 -178.667953 -1.835447 -27.422342 241.171753
[L_weapon_bone]
8 156.183838 0.000000 0.000000 0.000014 0.000007 0.000001 156.183838
9 156.183838 0.000000 0.000000 0.000014 0.000007 0.000001 156.183838
[L_front_hand01_01]
8 86.095154 20.947098 -0.655860 -0.320921 -0.506953 70.185371 88.609184
9 86.095154 20.947098 -0.655860 -0.306535 -0.513312 68.646957 88.609184
[L_front_hand02_01]
8 86.935165 -11.437475 24.513514 146.961243 -57.333778 -52.657810 91.046425
9 86.935165 -11.437475 24.513514 145.004044 -56.473930 -50.323570 91.046425
[L_front_hand03_01]
8 86.637497 -14.123976 -20.424902 -146.985443 55.548409 -54.432819 90.126129
9 86.637497 -14.123976 -20.424902 -145.151367 54.687611 -52.198399 90.126129
[L_front_hand01_02]
8 71.020905 -0.000179 0.000030 0.000317 -0.002326 -105.513657 71.020905
9 71.020905 -0.000179 0.000030 0.000316 -0.002326 -105.490036 71.020905
[L_front_hand02_02]
8 71.020927 -0.000119 0.000060 0.000317 -0.002326 -105.513657 71.020927
9 71.020927 -0.000119 0.000060 0.000316 -0.002326 -105.490036 71.020927
[L_front_hand03_02]
8 71.020905 -0.000060 0.000060 0.000317 -0.002326 -105.513657 71.020905
9 71.020905 -0.000060 0.000060 0.000316 -0.002326 -105.490036 71.020905
[R_forearm]
8 322.776428 -0.000060 0.000030 0.201265 0.067700 -109.507515 322.776428
9 322.776428 -0.000060 0.000030 0.201195 0.067908 -109.625587 322.776428
[R_front_hand]
8 238.847015 -0.006795 2.210259 -2.635298 -10.645460 -26.312506 238.857239
9 238.847015 -0.006795 2.210259 -2.635298 -10.645461 -26.312506 238.857239
[R_weapon_bone]
8 155.664093 0.002503 -0.000030 0.003487 0.001180 -90.988930 155.664078
9 155.664093 0.002503 -0.000030 0.003487 0.001180 -90.988930 155.664078
[R_front_hand01_01]
8 87.624611 14.231146 22.918642 -147.670532 -57.619129 53.605923 91.683487
9 87.624611 14.231146 22.918642 -145.613235 -56.747219 51.157963 91.683487
[R_front_hand02_01]
8 89.356956 14.367283 -19.491137 148.052353 55.989693 55.954597 92.579636
9 89.356956 14.367283 -19.491137 146.110458 55.128284 53.601921 92.579636
[R_front_hand03_01]
8 87.286232 -22.307278 -0.143439 0.125269 -0.437058 -70.957245 90.091743
9 87.286232 -22.307278 -0.143439 0.113738 -0.439575 -69.369316 90.091743
[R_front_hand01_02]
8 71.020905 0.000060 0.000119 0.002323 -0.000334 106.381714 71.020905
9 71.020905 0.000060 0.000119 0.002323 -0.000334 106.381714 71.020905
[R_front_hand02_02]
8 71.020844 -0.000030 -0.000119 0.002323 -0.000334 106.381714 71.020836
9 71.020844 -0.000030 -0.000119 0.002323 -0.000334 106.381714 71.020836
[R_front_hand03_02]
8 71.020905 0.000000 0.000030 0.002323 -0.000334 106.381714 71.020905
9 71.020905 0.000000 0.000030 0.002323 -0.000334 106.381714 71.020905
[null_rope01_connect]
8 328.732483 0.000000 -0.000238 -136.356766 -67.582520 164.549347 328.732483
9 328.732483 0.000000 -0.000238 -129.756439 -65.563606 150.255234 328.732483
[Rope1_Seg01]
8 -0.000007 0.000031 0.000027 -86.867455 55.401955 -92.209763 0.000042
9 -0.000008 0.000031 0.000031 -103.530830 52.941833 -104.666840 0.000044
[Rope1_Seg02]
8 139.999863 -0.000179 0.000000 2.791597 1.818090 -4.838965 139.999863
9 139.999863 -0.000179 0.000000 1.686120 1.435993 -2.985089 139.999863
[Rope1_Seg03]
8 139.999924 0.000060 -0.000060 5.834196 2.180224 -6.914973 139.999924
9 139.999924 0.000060 -0.000060 3.241663 1.911115 -4.309755 139.999924
[Rope1_Seg04]
8 139.999924 -0.000060 -0.000119 39.235939 2.502258 -17.507856 139.999924
9 139.999924 -0.000060 -0.000119 25.495081 4.172003 -12.924294 139.999924
[Rope1_Seg05]
8 139.999832 0.000119 -0.000060 -5.604471 2.151339 -0.494892 139.999832
9 139.999832 0.000119 -0.000060 -10.659446 1.502418 1.868507 139.999832
[Rope1_Seg06]
8 139.999954 0.000119 -0.000060 -27.802568 4.714499 6.743932 139.999954
9 139.999954 0.000119 -0.000060 -15.213956 0.338633 6.931248 139.999954
[Rope1_Seg07]
8 139.999985 0.000060 0.000000 -4.370738 0.433902 1.598634 139.999985
9 139.999985 0.000060 0.000000 -2.365539 -0.214934 1.490165 139.999985
[Rope1_Seg09]
8 121.602913 0.000119 -0.000089 -89.793175 -1.359789 0.847147 121.602913
9 121.602913 0.000119 -0.000089 -89.793175 -1.359789 0.847147 121.602913
[L_mid_hand01]
8 103.859421 1.038730 8.195221 109.437721 -41.837845 -13.776228 104.187431
9 103.859421 1.038730 8.195221 109.056190 -40.604698 -13.201404 104.187431
[L_mid_hand02]
8 105.572853 -4.139662 -10.864139 -147.395187 32.186741 -39.191986 106.211075
9 105.572853 -4.139662 -10.864139 -146.713593 31.476528 -37.902313 106.211075
[L_mid_hand03]
8 104.641464 17.579376 -3.913581 -13.988547 12.638442 45.197113 106.179977
9 104.641464 17.579376 -3.913581 -14.267232 12.322316 43.898403 106.179977
[null_rope02_connect]
8 328.732849 0.000179 -0.000119 6.705340 58.296158 157.057571 328.732849
9 328.732849 0.000179 -0.000119 6.441699 52.891724 163.025696 328.732849
[Rope2_Seg01]
8 0.000045 0.000126 0.000000 86.062714 24.558935 -157.526047 0.000134
9 0.000046 0.000122 0.000000 85.290154 23.046772 -159.677124 0.000130
[Rope2_Seg02]
8 139.999741 -0.000060 -0.000119 -1.142855 10.147600 -8.334536 139.999756
9 139.999741 -0.000060 -0.000119 -1.489724 8.818152 -9.126315 139.999756
[Rope2_Seg03]
8 140.000107 0.000030 0.000000 -0.825883 14.856155 -12.685207 140.000107
9 140.000107 0.000030 0.000000 -0.912734 12.563162 -13.208529 140.000107
[Rope2_Seg04]
8 139.999802 0.000000 -0.000060 6.467437 21.658926 -27.217104 139.999802
9 139.999802 0.000000 -0.000060 5.132706 18.111778 -27.437788 139.999802
[Rope2_Seg05]
8 139.999985 -0.000060 0.000119 -3.314363 5.881374 0.143475 139.999985
9 139.999985 -0.000060 0.000119 -1.302440 5.589959 -1.151343 139.999985
[Rope2_Seg06]
8 139.999893 -0.000030 -0.000119 -22.023258 -4.098524 29.700729 139.999893
9 139.999893 -0.000030 -0.000119 -18.616751 -1.958739 30.141085 139.999893
[Rope2_Seg07]
8 139.999893 0.000060 -0.000060 -5.915976 -7.907331 15.375405 139.999893
9 139.999893 0.000060 -0.000060 -5.773525 -6.658113 17.901541 139.999893
[Rope2_Seg09]
8 121.338966 0.000089 -0.000060 33.793236 -1.359788 -0.847141 121.338966
9 121.338966 0.000089 -0.000060 33.793236 -1.359788 -0.847141 121.338966
[R_mid_hand01]
8 104.680779 11.144459 -10.335981 -30.935734 37.970642 48.479172 105.778534
9 104.680779 11.144459 -10.335981 -33.085686 36.191681 44.913227 105.778534
[R_mid_hand02]
8 104.070427 2.443552 8.231699 65.980988 -52.455704 19.994473 104.424065
9 104.070427 2.443552 8.231699 67.611252 -49.370300 17.897308 104.424065
[R_mid_hand03]
8 106.028137 -11.221827 -5.996406 -172.374313 13.894678 -58.153652 106.788818
9 106.028137 -11.221827 -5.996406 -171.571182 13.427422 -54.737041 106.788818
[spine02]
8 129.756927 0.001550 0.000119 0.502274 -4.028557 -14.999044 129.756927
9 129.756927 0.001550 0.000119 0.517551 -4.026569 -15.154319 129.756927
[spine03]
8 78.614067 0.081760 -4.898949 1.981485 3.788047 17.771301 78.766602
9 78.614059 0.081757 -4.898941 1.986832 3.786148 17.859118 78.766594
[pelvis]
8 169.435242 0.051022 0.000000 -0.069478 -0.178071 16.718098 169.435257
9 169.435242 0.051022 0.000000 -0.069781 -0.177953 16.913078 169.435257
[null_rope03_connect]
8 -1.257226 -2.466202 137.391083 -141.768494 -68.982880 -167.938843 137.418976
9 -1.257226 -2.466202 137.391083 -141.517609 -65.086563 -168.651245 137.418976
[null_rope04_connect]
8 -1.259640 -2.480268 -137.844437 -141.768494 -68.982880 -167.938843 137.872513
9 -1.259640 -2.480268 -137.844437 -141.517609 -65.086563 -168.651245 137.872513
[Rope3_Seg01]
8 -0.000016 -0.000170 -0.000153 -165.489426 24.800884 -145.849991 0.000229
9 -0.000015 -0.000183 -0.000153 -172.093338 24.824129 -150.718674 0.000239
[Rope3_Seg02]
8 139.999924 -0.000119 0.000060 -9.887172 -10.278261 -4.521595 139.999924
9 139.999924 -0.000119 0.000060 -9.819489 -8.915799 -4.480452 139.999924
[Rope3_Seg03]
8 139.999924 -0.000119 0.000119 -4.573915 -9.294802 -6.264508 139.999924
9 139.999924 -0.000119 0.000119 -4.338583 -7.823402 -5.865775 139.999924
[Rope3_Seg04]
8 139.999924 0.000119 0.000000 -3.546460 -13.411367 -9.418007 139.999924
9 139.999924 0.000119 0.000000 -3.710922 -11.074080 -8.416685 139.999924
[Rope3_Seg05]
8 139.999924 -0.000238 0.000060 -0.388777 -4.763018 -4.785063 139.999924
9 139.999924 -0.000238 0.000060 -0.807156 -5.799659 -5.659727 139.999924
[Rope3_Seg06]
8 139.999893 -0.000119 -0.000060 2.665634 6.237441 2.426078 139.999893
9 139.999893 -0.000119 -0.000060 2.210097 3.666945 0.814793 139.999893
[Rope3_Seg07]
8 139.999771 0.000060 -0.000119 6.835383 12.352584 5.677250 139.999771
9 139.999771 0.000060 -0.000119 7.159955 11.515591 5.412407 139.999771
[Rope3_Seg08]
8 139.999985 -0.000060 0.000000 4.560826 5.728986 1.424357 139.999985
9 139.999985 -0.000060 0.000000 5.994818 6.728232 1.773253 139.999985
[Rope3_Seg09]
8 90.185997 -0.000179 -0.000060 89.793228 -1.359877 -0.847183 90.185997
9 90.185997 -0.000179 -0.000060 89.793228 -1.359877 -0.847183 90.185997
[R_rear_hand01]
8 103.366196 -6.073594 -10.757982 -168.239929 21.836601 -50.169044 104.101845
9 103.366196 -6.073594 -10.757982 -166.818848 21.039259 -46.280426 104.101845
[R_rear_hand02]
8 100.509819 12.039542 -7.992327 -26.552095 29.320543 47.442066 101.543350
9 100.509819 12.039542 -7.992327 -28.339693 27.613865 43.697414 101.543350
[R_rear_hand03]
8 101.539970 5.215704 5.435467 81.061974 -50.389538 10.772509 101.819031
9 101.539970 5.215704 5.435467 81.685280 -46.725750 9.939899 101.819031
[Rope4_Seg01]
8 0.000000 -0.000245 -0.000179 58.655418 49.089928 -96.327881 0.000304
9 0.000000 -0.000275 -0.000183 56.393780 50.708599 -100.011543 0.000330
[Rope4_Seg02]
8 139.999985 0.000060 0.000119 0.036908 -16.046526 -3.510268 139.999985
9 139.999985 0.000060 0.000119 0.341668 -17.704159 -4.046594 139.999985
[Rope4_Seg03]
8 139.999924 0.000000 -0.000238 0.603130 -11.684152 -2.864291 139.999924
9 139.999924 0.000000 -0.000238 0.777826 -11.823444 -3.027741 139.999924
[Rope4_Seg04]
8 139.999985 0.000000 0.000119 1.119357 -12.644659 -3.974641 139.999985
9 139.999985 0.000000 0.000119 1.067009 -11.364721 -3.609128 139.999985
[Rope4_Seg05]
8 139.999802 -0.000060 -0.000119 0.494093 -2.272934 -0.136753 139.999802
9 139.999802 -0.000060 -0.000119 0.477146 -1.808384 -0.040498 139.999802
[Rope4_Seg06]
8 139.999924 0.000000 0.000060 0.398336 5.366402 2.862579 139.999924
9 139.999924 0.000000 0.000060 0.398452 4.555189 2.507364 139.999924
[Rope4_Seg07]
8 139.999802 0.000000 0.000000 1.114036 15.400632 7.218941 139.999802
9 139.999802 0.000000 0.000000 1.047991 14.405496 6.888034 139.999802
[Rope4_Seg08]
8 139.999924 0.000000 0.000119 -0.976254 10.675127 5.123063 139.999924
9 139.999924 0.000000 0.000119 -0.849676 11.776299 5.738824 139.999924
[Rope4_Seg09]
8 90.185791 0.000060 0.000060 -135.617828 2.228885 0.850567 90.185791
9 90.185791 0.000060 0.000060 -135.617828 2.228885 0.850567 90.185791
[L_rear_hand01]
8 101.696655 -8.392275 -7.654577 -31.429779 -23.932976 143.406311 102.329041
9 101.696655 -8.392275 -7.654577 -30.719042 -24.879360 141.681366 102.329041
[L_rear_hand02]
8 102.726799 -1.568258 5.773216 82.628304 39.414528 171.441589 102.900848
9 102.726799 -1.568258 5.773216 82.428490 41.230476 171.131027 102.900848
[L_rear_hand03]
8 104.552910 9.721220 -10.420293 -164.198181 -19.188400 -141.332703 105.519653
9 104.552910 9.721220 -10.420293 -164.822937 -19.676041 -139.457672 105.519653
